<svg height="512pt" viewBox="0 0 512 512" width="512pt" xmlns="http://www.w3.org/2000/svg"><g fill="#00eed0"><path d="m102.375 409.585938c-23.398438-23.699219-61.199219-23.699219-84.597656 0-23.703125 23.402343-23.703125 61.199218 0 84.601562 0 0 0 0 .296875.296875 23.402343 23.402344 60.902343 23.402344 84.300781-.296875 23.699219-23.402344 23.699219-61.199219 0-84.601562zm0 0"/><path d="m272 465v32c0 8.398438-6.597656 15-15 15h-30c-8.402344 0-15-6.601562-15-15v-32c0-45.601562-18.601562-87-48.300781-116.699219s-71.097657-48.300781-116.699219-48.300781h-32c-8.402344 0-15-6.601562-15-15v-30c0-8.402344 6.597656-15 15-15h32c62.101562 0 118.199219 25.199219 159 66s66 96.898438 66 159zm0 0"/><path d="m392 465v32c0 8.398438-6.597656 15-15 15h-30c-8.402344 0-15-6.601562-15-15v-32c0-78.601562-31.800781-150-83.402344-201.601562-51.597656-51.597657-122.996094-83.398438-201.597656-83.398438h-32c-8.402344 0-15-6.601562-15-15v-30c0-8.402344 6.597656-15 15-15h32c95.398438 0 181.5 38.699219 243.898438 101.101562 62.402343 62.398438 101.101562 148.5 101.101562 243.898438zm0 0"/><path d="m512 464.699219v32.300781c0 8.398438-6.300781 14.699219-14.699219 15 0 0-27.300781 0-30.300781 0-8.402344 0-15-6.601562-15-15v-32c0-111.902344-45.300781-213-118.5-286.5-73.5-73.199219-174.601562-118.5-286.5-118.5h-32c-8.402344 0-15-6.601562-15-15v-30c0-4.199219 1.800781-7.800781 4.5-10.5s6.300781-4.5 10.5-4.5h32c128.402344 0 244.800781 51.898438 328.800781 136.199219 84.300781 84 136.199219 200.101562 136.199219 328.5zm0 0"/></g><path d="m102.375 409.585938c23.699219 23.402343 23.699219 61.199218 0 84.601562-23.398438 23.699219-60.898438 23.699219-84.300781.296875-.296875-.296875-.296875-.296875-.296875-.296875zm0 0" fill="#00ddc1"/><path d="m206 306c40.800781 40.800781 66 96.898438 66 159v32c0 8.398438-6.597656 15-15 15h-30c-8.402344 0-15-6.601562-15-15v-32c0-45.601562-18.601562-87-48.300781-116.699219zm0 0" fill="#00ddc1"/><path d="m290.898438 221.101562c62.402343 62.398438 101.101562 148.5 101.101562 243.898438v32c0 8.398438-6.597656 15-15 15h-30c-8.402344 0-15-6.601562-15-15v-32c0-78.601562-31.800781-150-83.402344-201.601562zm0 0" fill="#00ddc1"/><path d="m512 464.699219v32.300781c0 8.398438-6.300781 14.699219-14.699219 15 0 0-27.300781 0-30.300781 0-8.402344 0-15-6.601562-15-15v-32c0-111.902344-45.300781-213-118.5-286.5l42.300781-42.300781c84.300781 84 136.199219 200.101562 136.199219 328.5zm0 0" fill="#00ddc1"/></svg>